<?xml version="1.0" encoding="UTF-8" standalone="no" ?>
<!DOCTYPE svg PUBLIC "-//W3C//DTD SVG 1.1//EN" "http://www.w3.org/Graphics/SVG/1.1/DTD/svg11.dtd">
<svg xmlns="http://www.w3.org/2000/svg" xmlns:xlink="http://www.w3.org/1999/xlink" version="1.1" width="1200" height="628" viewBox="0 0 1200 628" xml:space="preserve">
<desc>Created with Fabric.js 4.6.0</desc>
<defs>
</defs>
<g transform="matrix(1 0 0 1 600 729.55)" id="WCFMfR0ywMjkiEIqxcKsG"  >
<path style="stroke: none; stroke-width: 1; stroke-dasharray: none; stroke-linecap: butt; stroke-dashoffset: 0; stroke-linejoin: miter; stroke-miterlimit: 4; fill: rgb(255,255,255); fill-rule: nonzero; opacity: 1;" vector-effect="non-scaling-stroke"  transform=" translate(-750, -169.55)" d="M 1188.12 339.09459 L 749.9999999999999 240.04699 L 311.8799999999999 339.09459 L -1.1368683772161603e-13 268.5949 L 438.1049999999999 169.5473 L -1.1368683772161603e-13 70.4997 L 311.8799999999999 0.000010000000003174137 L 749.9999999999999 99.04761 L 1188.12 0.000010000000003174137 L 1500 70.4997 L 1061.895 169.5473 L 1500 268.5949 z" stroke-linecap="round" />
</g>
<g transform="matrix(1 0 0 1 600 700)" id="UAIUs0UOCtkCVKGlphDKM"  >
<path style="stroke: rgb(198,159,74); stroke-width: 0; stroke-dasharray: none; stroke-linecap: butt; stroke-dashoffset: 0; stroke-linejoin: miter; stroke-miterlimit: 4; fill: rgb(255,255,255); fill-rule: nonzero; opacity: 1;" vector-effect="non-scaling-stroke"  transform=" translate(-500, -100)" d="M 500 0 C 776 0 1000 44.8 1000 100 C 1000 155.2 776 200 500 200 C 224 200 0 155.2 0 100 C 0 44.8 224 0 500 0 z" stroke-linecap="round" />
</g>
</svg>