<?xml version="1.0" standalone="no"?>
<!DOCTYPE svg PUBLIC "-//W3C//DTD SVG 20010904//EN"
 "http://www.w3.org/TR/2001/REC-SVG-20010904/DTD/svg10.dtd">
<svg version="1.0" xmlns="http://www.w3.org/2000/svg"
 width="300.000000pt" height="300.000000pt" viewBox="0 0 300.000000 300.000000"
 preserveAspectRatio="xMidYMid meet">
<metadata>
Created by potrace 1.10, written by Peter Selinger 2001-2011
</metadata>
<g transform="translate(0.000000,300.000000) scale(0.050000,-0.050000)"
fill="#000000" stroke="none">
<path d="M2760 4206 c-851 -143 -1269 -1215 -752 -1926 192 -265 510 -456 817
-492 l115 -14 0 643 0 643 -340 0 -340 0 0 -60 0 -60 280 0 280 0 0 -390 c0
-241 -7 -390 -20 -390 -305 0 -650 446 -650 840 0 396 344 840 650 840 12 0
20 -107 20 -270 l0 -270 60 0 60 0 0 460 0 460 -65 -3 c-36 -1 -87 -6 -115
-11z m60 -186 c0 -46 -9 -60 -39 -60 -167 0 -497 -234 -626 -443 -336 -544 1
-1375 597 -1471 59 -10 68 -19 68 -69 0 -68 -16 -70 -170 -17 -979 337 -993
1711 -22 2073 168 62 192 60 192 -13z"/>
<path d="M3060 3000 l0 -1220 54 0 c535 0 1106 601 1106 1164 l0 116 -180 0
-180 0 0 -67 c0 -321 -193 -622 -489 -766 -77 -37 -151 -67 -165 -67 -21 0
-26 207 -26 1030 l0 1030 -60 0 -60 0 0 -1220z m1040 -76 c0 -424 -417 -914
-846 -995 -72 -13 -74 -12 -74 49 0 49 8 62 41 62 280 0 705 450 750 796 13
98 17 104 72 104 31 0 57 -7 57 -16z"/>
</g>
</svg>
